<?xml version="1.0" encoding="UTF-8"?>
<!DOCTYPE svg PUBLIC "-//W3C//DTD SVG 1.1//EN" "http://www.w3.org/Graphics/SVG/1.1/DTD/svg11.dtd">
<svg xmlns="http://www.w3.org/2000/svg" version="1.1" width="225px" height="225px" style="shape-rendering:geometricPrecision; text-rendering:geometricPrecision; image-rendering:optimizeQuality; fill-rule:evenodd; clip-rule:evenodd" xmlns:xlink="http://www.w3.org/1999/xlink">
<g><path style="opacity:1" fill="#fcfdfc" d="M -0.5,-0.5 C 74.5,-0.5 149.5,-0.5 224.5,-0.5C 224.5,74.5 224.5,149.5 224.5,224.5C 149.5,224.5 74.5,224.5 -0.5,224.5C -0.5,149.5 -0.5,74.5 -0.5,-0.5 Z"/></g>
<g><path style="opacity:1" fill="#177af0" d="M 33.5,35.5 C 45.0123,35.1719 56.3456,35.5052 67.5,36.5C 67.5,37.8333 67.5,39.1667 67.5,40.5C 65.4727,40.6621 63.4727,40.4955 61.5,40C 66.7296,38.8983 66.7296,38.065 61.5,37.5C 60.1667,37.8333 58.8333,38.1667 57.5,38.5C 58.0253,39.1924 58.6919,39.6924 59.5,40C 50.8397,40.4998 42.1731,40.6664 33.5,40.5C 33.5,38.8333 33.5,37.1667 33.5,35.5 Z"/></g>
<g><path style="opacity:1" fill="#93bef8" d="M 67.5,36.5 C 67.554,44.1452 68.2207,51.8119 69.5,59.5C 68.6309,63.7103 65.9642,65.7103 61.5,65.5C 52.676,64.6703 43.676,64.1703 34.5,64C 33.5183,56.253 33.185,48.4197 33.5,40.5C 42.1731,40.6664 50.8397,40.4998 59.5,40C 58.6919,39.6924 58.0253,39.1924 57.5,38.5C 58.8333,38.1667 60.1667,37.8333 61.5,37.5C 66.7296,38.065 66.7296,38.8983 61.5,40C 63.4727,40.4955 65.4727,40.6621 67.5,40.5C 67.5,39.1667 67.5,37.8333 67.5,36.5 Z"/></g>
<g><path style="opacity:1" fill="#d7f2fd" d="M 52.5,44.5 C 55.2639,44.9988 56.9305,46.6655 57.5,49.5C 55.0846,50.3052 52.7513,51.3052 50.5,52.5C 51.1667,49.8333 51.8333,47.1667 52.5,44.5 Z"/></g>
<g><path style="opacity:1" fill="#94bcf7" d="M 185.5,58.5 C 183.076,58.1924 180.743,58.5258 178.5,59.5C 177.185,61.1986 177.185,62.8653 178.5,64.5C 178.5,65.8333 178.5,67.1667 178.5,68.5C 174.486,68.3345 170.486,68.5012 166.5,69C 164.167,72.3333 161.833,72.3333 159.5,69C 154.167,68.6667 148.833,68.3333 143.5,68C 142.517,59.5851 142.183,51.0851 142.5,42.5C 156.833,42.5 171.167,42.5 185.5,42.5C 185.5,47.8333 185.5,53.1667 185.5,58.5 Z"/></g>
<g><path style="opacity:1" fill="#1251b0" d="M 57.5,49.5 C 59.3046,54.2369 57.9713,57.9036 53.5,60.5C 51.6214,60.6068 51.2881,60.1068 52.5,59C 51.6028,56.9129 50.9361,54.7463 50.5,52.5C 52.7513,51.3052 55.0846,50.3052 57.5,49.5 Z"/></g>
<g><path style="opacity:1" fill="#3970c7" d="M 162.5,51.5 C 163.5,51.5 164.5,51.5 165.5,51.5C 165.5,55.8333 165.5,60.1667 165.5,64.5C 164.5,64.5 163.5,64.5 162.5,64.5C 162.5,60.1667 162.5,55.8333 162.5,51.5 Z"/></g>
<g><path style="opacity:1" fill="#1b7df0" d="M 52.5,44.5 C 51.8333,47.1667 51.1667,49.8333 50.5,52.5C 50.9361,54.7463 51.6028,56.9129 52.5,59C 51.2881,60.1068 51.6214,60.6068 53.5,60.5C 46.0508,62.9223 42.0508,60.089 41.5,52C 41.396,49.8546 42.0627,48.0212 43.5,46.5C 45.0016,45.9169 46.3349,45.0836 47.5,44C 49.3869,43.2204 51.0536,43.3871 52.5,44.5 Z"/></g>
<g><path style="opacity:1" fill="#1b57b1" d="M 173.5,55.5 C 174.765,56.5145 175.431,58.0145 175.5,60C 175.167,61.5 174.833,63 174.5,64.5C 173.516,61.5719 173.183,58.5719 173.5,55.5 Z"/></g>
<g><path style="opacity:1" fill="#3b87e8" d="M 147.5,59.5 C 148.5,59.5 149.5,59.5 150.5,59.5C 150.5,61.1667 150.5,62.8333 150.5,64.5C 149.5,64.5 148.5,64.5 147.5,64.5C 147.5,62.8333 147.5,61.1667 147.5,59.5 Z"/></g>
<g><path style="opacity:1" fill="#356fc3" d="M 152.5,55.5 C 153.5,55.5 154.5,55.5 155.5,55.5C 155.5,58.5 155.5,61.5 155.5,64.5C 154.5,64.5 153.5,64.5 152.5,64.5C 152.5,61.5 152.5,58.5 152.5,55.5 Z"/></g>
<g><path style="opacity:1" fill="#4f95e9" d="M 167.5,53.5 C 168.496,53.4142 169.329,53.7476 170,54.5C 170.498,57.8168 170.665,61.1501 170.5,64.5C 169.5,64.5 168.5,64.5 167.5,64.5C 167.5,60.8333 167.5,57.1667 167.5,53.5 Z"/></g>
<g><path style="opacity:1" fill="#c0d3f3" d="M 33.5,35.5 C 33.5,37.1667 33.5,38.8333 33.5,40.5C 33.185,48.4197 33.5183,56.253 34.5,64C 43.676,64.1703 52.676,64.6703 61.5,65.5C 61.1667,65.5 60.8333,65.5 60.5,65.5C 51.2494,65.8178 42.0828,65.4845 33,64.5C 32.1754,54.6578 32.342,44.9911 33.5,35.5 Z"/></g>
<g><path style="opacity:1" fill="#207ced" d="M 69.5,75.5 C 67.3229,74.0339 65.1563,72.3673 63,70.5C 60.5973,72.3159 58.0973,72.6493 55.5,71.5C 57.1667,69.5 58.8333,67.5 60.5,65.5C 60.8333,65.5 61.1667,65.5 61.5,65.5C 65.9642,65.7103 68.6309,63.7103 69.5,59.5C 74.1726,56.5558 79.1726,54.7225 84.5,54C 83.1279,55.2419 82.1279,56.7419 81.5,58.5C 83.316,60.8169 85.316,62.9835 87.5,65C 81.3407,68.2456 75.3407,71.7456 69.5,75.5 Z"/></g>
<g><path style="opacity:1" fill="#3983e1" d="M 159.5,55.5 C 160.477,58.2869 160.81,61.2869 160.5,64.5C 159.5,64.5 158.5,64.5 157.5,64.5C 157.091,61.1445 157.758,58.1445 159.5,55.5 Z"/></g>
<g><path style="opacity:1" fill="#26313b" d="M 185.5,58.5 C 188.33,59.5103 190.83,61.1769 193,63.5C 193.78,65.3869 193.613,67.0536 192.5,68.5C 191.178,68.33 190.011,68.6634 189,69.5C 188.82,67.5116 188.986,65.5116 189.5,63.5C 186.287,63.19 183.287,63.5233 180.5,64.5C 179.833,64.5 179.167,64.5 178.5,64.5C 177.185,62.8653 177.185,61.1986 178.5,59.5C 180.743,58.5258 183.076,58.1924 185.5,58.5 Z"/></g>
<g><path style="opacity:1" fill="#ecb17e" d="M 192.5,68.5 C 190.98,72.057 189.647,75.7237 188.5,79.5C 187.707,79.9312 186.873,80.2645 186,80.5C 179.556,76.9657 177.722,71.6324 180.5,64.5C 183.287,63.5233 186.287,63.19 189.5,63.5C 188.986,65.5116 188.82,67.5116 189,69.5C 190.011,68.6634 191.178,68.33 192.5,68.5 Z"/></g>
<g><path style="opacity:1" fill="#e1e1e2" d="M 47.5,82.5 C 46.15,85.5721 44.8167,88.5721 43.5,91.5C 43.1995,88.683 41.8661,88.0163 39.5,89.5C 37.6634,88.1621 35.9967,86.6621 34.5,85C 35.1667,84 35.8333,83 36.5,82C 27.2813,71.9332 29.6146,67.0999 43.5,67.5C 41.1708,73.6281 42.5041,78.6281 47.5,82.5 Z"/></g>
<g><path style="opacity:1" fill="#f7fafa" d="M 87.5,54.5 C 86.2003,55.601 85.7003,56.9343 86,58.5C 89.4084,61.4532 92.9084,64.2865 96.5,67C 98.0249,68.0086 99.6916,68.5086 101.5,68.5C 101.5,67.1667 101.5,65.8333 101.5,64.5C 124.019,66.3717 138.353,78.0384 144.5,99.5C 144.662,101.527 144.495,103.527 144,105.5C 142.603,104.774 141.769,103.607 141.5,102C 142.332,99.5217 142.499,97.0217 142,94.5C 140.951,96.1066 139.451,96.7733 137.5,96.5C 137.753,98.8273 137.086,100.827 135.5,102.5C 136.898,104.13 137.898,105.964 138.5,108C 144.179,108.091 146.012,110.925 144,116.5C 142.883,114.876 141.383,113.876 139.5,113.5C 136.978,114.762 134.311,115.429 131.5,115.5C 131.623,118.588 130.623,121.255 128.5,123.5C 130.623,125.745 131.623,128.412 131.5,131.5C 134.888,130.969 136.888,132.303 137.5,135.5C 133.729,141.936 128.396,146.603 121.5,149.5C 121.029,147.421 120.363,145.421 119.5,143.5C 119.863,141.089 118.863,139.589 116.5,139C 118.611,134.154 120.611,129.321 122.5,124.5C 117.637,124.819 112.97,124.486 108.5,123.5C 108.5,123.167 108.5,122.833 108.5,122.5C 109.858,120.199 111.691,118.199 114,116.5C 114.494,114.866 114.66,113.199 114.5,111.5C 112.09,111.921 110.257,113.254 109,115.5C 108.667,115.167 108.333,114.833 108,114.5C 106.731,115.905 106.231,117.571 106.5,119.5C 104.873,121.464 102.873,122.797 100.5,123.5C 100.689,119.963 100.023,116.63 98.5,113.5C 96.7838,111.553 94.6171,110.219 92,109.5C 91.3333,110.167 91.3333,110.833 92,111.5C 92.9487,113.093 94.1154,114.426 95.5,115.5C 97.2641,120.644 97.9308,125.977 97.5,131.5C 96.5655,132.568 96.2322,133.901 96.5,135.5C 95.5,135.5 94.5,135.5 93.5,135.5C 91.0372,135.219 88.8705,134.219 87,132.5C 86.7998,125.117 86.2998,117.784 85.5,110.5C 75.6732,109.516 72.0066,114.016 74.5,124C 74.6667,127.5 74.8333,131 75,134.5C 76.2989,135.09 77.1322,136.09 77.5,137.5C 76.8849,140.796 75.8849,143.962 74.5,147C 74.6387,148.301 75.3054,149.134 76.5,149.5C 76.6036,151.703 77.2702,153.703 78.5,155.5C 67.8333,155.5 57.1667,155.5 46.5,155.5C 46.8234,149.377 46.1568,143.377 44.5,137.5C 43.8165,137.863 43.1499,138.196 42.5,138.5C 43.299,135.57 43.6323,132.57 43.5,129.5C 45.3685,134.903 48.0352,139.903 51.5,144.5C 52.7945,146.907 54.4611,149.074 56.5,151C 62.1959,151.83 67.8625,151.663 73.5,150.5C 64.8134,142.465 58.6468,132.798 55,121.5C 52.8769,113.741 53.0435,106.074 55.5,98.5C 58.4092,89.6665 63.0759,81.9998 69.5,75.5C 75.3407,71.7456 81.3407,68.2456 87.5,65C 85.316,62.9835 83.316,60.8169 81.5,58.5C 82.1279,56.7419 83.1279,55.2419 84.5,54C 79.1726,54.7225 74.1726,56.5558 69.5,59.5C 68.2207,51.8119 67.554,44.1452 67.5,36.5C 56.3456,35.5052 45.0123,35.1719 33.5,35.5C 34.2341,34.2921 34.5674,32.9587 34.5,31.5C 35.5,31.5 36.5,31.5 37.5,31.5C 37.5,32.5 37.5,33.5 37.5,34.5C 48.505,34.3335 59.505,34.5002 70.5,35C 70.8273,37.6849 70.8273,40.5182 70.5,43.5C 71.5,43.5 72.5,43.5 73.5,43.5C 73.7135,45.1439 73.3802,46.6439 72.5,48C 75.7111,49.1532 79.0445,49.8198 82.5,50C 84.0632,51.736 85.7299,53.236 87.5,54.5 Z"/></g>
<g><path style="opacity:1" fill="#a9c4eb" d="M 117.5,101.5 C 114.391,101.736 111.391,101.403 108.5,100.5C 107.752,98.6675 106.752,97.0009 105.5,95.5C 102.038,87.7549 104.538,82.7549 113,80.5C 120.808,81.6257 123.808,85.9591 122,93.5C 120.205,96.0993 118.705,98.7659 117.5,101.5 Z"/></g>
<g><path style="opacity:1" fill="#657074" d="M 150.5,81.5 C 154.846,81.3343 159.179,81.501 163.5,82C 164.904,86.2395 166.238,90.4061 167.5,94.5C 167.5,96.1667 167.5,97.8333 167.5,99.5C 162.833,99.5 158.167,99.5 153.5,99.5C 152.094,99.0269 151.427,98.0269 151.5,96.5C 152.693,96.0296 153.36,95.0296 153.5,93.5C 153.469,90.8245 152.136,89.4912 149.5,89.5C 149.489,87.4534 149.156,85.4534 148.5,83.5C 148.747,82.2867 149.414,81.62 150.5,81.5 Z"/></g>
<g><path style="opacity:1" fill="#242d30" d="M 96.5,98.5 C 95.596,97.791 95.2627,96.791 95.5,95.5C 92.5178,95.8956 89.8511,95.2289 87.5,93.5C 86.396,95.3885 85.0627,97.0552 83.5,98.5C 82.7492,97.624 82.2492,96.624 82,95.5C 81.6174,96.056 81.1174,96.3893 80.5,96.5C 75.5911,89.4103 77.0911,87.4103 85,90.5C 92.1996,88.3936 96.0329,91.0602 96.5,98.5 Z"/></g>
<g><path style="opacity:1" fill="#94bbf6" d="M 105.5,95.5 C 105.5,92.8333 105.5,90.1667 105.5,87.5C 107.827,87.3354 109.993,86.6687 112,85.5C 113.417,88.9933 114.917,89.16 116.5,86C 117.833,85.3333 119.167,85.3333 120.5,86C 121.523,88.7742 121.523,91.6075 120.5,94.5C 119.5,94.5 118.5,94.5 117.5,94.5C 116.489,98.6873 113.822,100.187 109.5,99C 108.897,96.9286 107.564,95.7619 105.5,95.5 Z"/></g>
<g><path style="opacity:1" fill="#cba88e" d="M 149.5,89.5 C 152.136,89.4912 153.469,90.8245 153.5,93.5C 153.36,95.0296 152.693,96.0296 151.5,96.5C 149.852,94.5441 149.185,92.2108 149.5,89.5 Z"/></g>
<g><path style="opacity:1" fill="#167df8" d="M 69.5,75.5 C 63.0759,81.9998 58.4092,89.6665 55.5,98.5C 54.8826,98.6107 54.3826,98.944 54,99.5C 53.6667,98.1667 53.3333,96.8333 53,95.5C 52.6667,102.5 52.3333,109.5 52,116.5C 51.5291,114.754 50.8624,113.087 50,111.5C 49.3457,110.304 48.8457,110.304 48.5,111.5C 49.2861,116.781 49.7861,122.115 50,127.5C 52.7101,132.422 55.5435,137.256 58.5,142C 57.1935,145.652 54.8601,146.485 51.5,144.5C 48.0352,139.903 45.3685,134.903 43.5,129.5C 42.0509,123.084 41.0509,116.584 40.5,110C 40.9228,103.723 41.9228,97.556 43.5,91.5C 44.8167,88.5721 46.15,85.5721 47.5,82.5C 49.922,78.6562 52.5887,74.9895 55.5,71.5C 58.0973,72.6493 60.5973,72.3159 63,70.5C 65.1563,72.3673 67.3229,74.0339 69.5,75.5 Z"/></g>
<g><path style="opacity:1" fill="#8b9ed2" d="M 178.5,94.5 C 179.492,94.3284 180.158,94.6618 180.5,95.5C 178.833,95.5 177.167,95.5 175.5,95.5C 175.737,96.791 175.404,97.791 174.5,98.5C 174.5,97.1667 174.5,95.8333 174.5,94.5C 175.833,94.5 177.167,94.5 178.5,94.5 Z"/></g>
<g><path style="opacity:1" fill="#dbb79b" d="M 180.5,95.5 C 181.338,95.8417 181.672,96.5084 181.5,97.5C 179.958,96.6993 178.292,96.366 176.5,96.5C 176.67,97.8221 176.337,98.9887 175.5,100C 177.437,100.122 178.77,100.955 179.5,102.5C 179.167,102.5 178.833,102.5 178.5,102.5C 177.432,101.566 176.099,101.232 174.5,101.5C 174.5,100.5 174.5,99.5 174.5,98.5C 175.404,97.791 175.737,96.791 175.5,95.5C 177.167,95.5 178.833,95.5 180.5,95.5 Z"/></g>
<g><path style="opacity:1" fill="#f8b260" d="M 181.5,97.5 C 181.923,99.7812 181.256,101.448 179.5,102.5C 178.77,100.955 177.437,100.122 175.5,100C 176.337,98.9887 176.67,97.8221 176.5,96.5C 178.292,96.366 179.958,96.6993 181.5,97.5 Z"/></g>
<g><path style="opacity:1" fill="#a27c6d" d="M 96.5,98.5 C 96.0879,100.887 95.0879,102.887 93.5,104.5C 94.2653,101.904 94.5987,99.2372 94.5,96.5C 87.6704,94.9999 84.6704,97.6666 85.5,104.5C 82.3929,102.812 80.7262,100.145 80.5,96.5C 81.1174,96.3893 81.6174,96.056 82,95.5C 82.2492,96.624 82.7492,97.624 83.5,98.5C 85.0627,97.0552 86.396,95.3885 87.5,93.5C 89.8511,95.2289 92.5178,95.8956 95.5,95.5C 95.2627,96.791 95.596,97.791 96.5,98.5 Z"/></g>
<g><path style="opacity:1" fill="#636a71" d="M 108.5,100.5 C 111.391,101.403 114.391,101.736 117.5,101.5C 116.344,106.409 113.678,107.409 109.5,104.5C 108.571,103.311 108.238,101.978 108.5,100.5 Z"/></g>
<g><path style="opacity:1" fill="#257be9" d="M 169.5,90.5 C 169.326,92.861 168.993,95.1944 168.5,97.5C 170.167,97.5 171.833,97.5 173.5,97.5C 173.338,95.4727 173.505,93.4727 174,91.5C 175.409,92.7811 176.909,93.7811 178.5,94.5C 177.167,94.5 175.833,94.5 174.5,94.5C 174.5,95.8333 174.5,97.1667 174.5,98.5C 173.566,99.5676 173.232,100.901 173.5,102.5C 175.167,102.5 176.833,102.5 178.5,102.5C 178.833,102.5 179.167,102.5 179.5,102.5C 180.542,103.791 181.708,103.791 183,102.5C 183.64,100.735 183.473,99.0683 182.5,97.5C 183.75,97.5774 184.583,98.244 185,99.5C 185.497,102.146 185.664,104.813 185.5,107.5C 192.802,108.91 192.969,110.243 186,111.5C 184.833,111.333 183.667,111.167 182.5,111C 183.337,109.989 183.67,108.822 183.5,107.5C 181.738,107.643 180.071,107.309 178.5,106.5C 177.749,107.376 177.249,108.376 177,109.5C 176.081,107.633 175.581,105.633 175.5,103.5C 174.605,105.246 173.938,107.08 173.5,109C 174.707,110.3 175.374,111.8 175.5,113.5C 174.167,113.5 172.833,113.5 171.5,113.5C 171.632,110.111 171.799,106.777 172,103.5C 167.835,106.12 163.668,106.12 159.5,103.5C 159.158,102.662 158.492,102.328 157.5,102.5C 155.781,101.978 154.448,100.978 153.5,99.5C 158.167,99.5 162.833,99.5 167.5,99.5C 167.5,97.8333 167.5,96.1667 167.5,94.5C 167.66,92.847 168.326,91.5137 169.5,90.5 Z"/></g>
<g><path style="opacity:1" fill="#7a96c9" d="M 174.5,98.5 C 174.5,99.5 174.5,100.5 174.5,101.5C 176.099,101.232 177.432,101.566 178.5,102.5C 176.833,102.5 175.167,102.5 173.5,102.5C 173.232,100.901 173.566,99.5676 174.5,98.5 Z"/></g>
<g><path style="opacity:1" fill="#bcb8ad" d="M 181.5,97.5 C 181.833,97.5 182.167,97.5 182.5,97.5C 183.473,99.0683 183.64,100.735 183,102.5C 181.708,103.791 180.542,103.791 179.5,102.5C 181.256,101.448 181.923,99.7812 181.5,97.5 Z"/></g>
<g><path style="opacity:1" fill="#c27d63" d="M 93.5,104.5 C 91.9848,107.755 89.6515,109.088 86.5,108.5C 85.5713,107.311 85.238,105.978 85.5,104.5C 84.6704,97.6666 87.6704,94.9999 94.5,96.5C 94.5987,99.2372 94.2653,101.904 93.5,104.5 Z"/></g>
<g><path style="opacity:1" fill="#3465a8" d="M 98.5,113.5 C 97.5041,113.586 96.6708,113.252 96,112.5C 95.5172,113.448 95.3505,114.448 95.5,115.5C 94.1154,114.426 92.9487,113.093 92,111.5C 91.3333,110.833 91.3333,110.167 92,109.5C 94.6171,110.219 96.7838,111.553 98.5,113.5 Z"/></g>
<g><path style="opacity:1" fill="#e5e7e8" d="M 144.5,99.5 C 145.653,105.653 145.82,111.986 145,118.5C 143.543,124.732 141.043,130.399 137.5,135.5C 136.888,132.303 134.888,130.969 131.5,131.5C 131.623,128.412 130.623,125.745 128.5,123.5C 130.623,121.255 131.623,118.588 131.5,115.5C 134.311,115.429 136.978,114.762 139.5,113.5C 141.383,113.876 142.883,114.876 144,116.5C 146.012,110.925 144.179,108.091 138.5,108C 137.898,105.964 136.898,104.13 135.5,102.5C 137.086,100.827 137.753,98.8273 137.5,96.5C 139.451,96.7733 140.951,96.1066 142,94.5C 142.499,97.0217 142.332,99.5217 141.5,102C 141.769,103.607 142.603,104.774 144,105.5C 144.495,103.527 144.662,101.527 144.5,99.5 Z"/></g>
<g><path style="opacity:1" fill="#c38173" d="M 108.5,122.5 C 108.068,121.29 107.401,120.29 106.5,119.5C 106.231,117.571 106.731,115.905 108,114.5C 108.333,114.833 108.667,115.167 109,115.5C 110.257,113.254 112.09,111.921 114.5,111.5C 114.66,113.199 114.494,114.866 114,116.5C 111.691,118.199 109.858,120.199 108.5,122.5 Z"/></g>
<g><path style="opacity:1" fill="#207fef" d="M 203.5,95.5 C 205.946,100.399 205.946,105.233 203.5,110C 201.655,111.128 199.655,111.628 197.5,111.5C 197.817,115.702 197.483,119.702 196.5,123.5C 195.5,123.5 194.5,123.5 193.5,123.5C 194.263,122.732 195.263,122.232 196.5,122C 195.109,120.98 193.609,120.147 192,119.5C 191.51,118.207 191.343,116.873 191.5,115.5C 193.167,115.5 194.833,115.5 196.5,115.5C 196.657,114.127 196.49,112.793 196,111.5C 194.768,114.23 193.935,114.063 193.5,111C 195.234,106.227 196.734,101.393 198,96.5C 198.711,98.8991 198.544,101.232 197.5,103.5C 198.842,104.876 200.175,106.209 201.5,107.5C 201.755,105.657 201.922,103.657 202,101.5C 202.29,103.044 202.956,104.377 204,105.5C 204.167,104.833 204.333,104.167 204.5,103.5C 203.6,101.761 202.933,99.928 202.5,98C 202.528,96.9302 202.861,96.0968 203.5,95.5 Z"/></g>
<g><path style="opacity:1" fill="#0c7af9" d="M 203.5,95.5 C 202.861,96.0968 202.528,96.9302 202.5,98C 202.933,99.928 203.6,101.761 204.5,103.5C 204.333,104.167 204.167,104.833 204,105.5C 202.956,104.377 202.29,103.044 202,101.5C 201.922,103.657 201.755,105.657 201.5,107.5C 200.175,106.209 198.842,104.876 197.5,103.5C 198.544,101.232 198.711,98.8991 198,96.5C 196.734,101.393 195.234,106.227 193.5,111C 193.935,114.063 194.768,114.23 196,111.5C 196.49,112.793 196.657,114.127 196.5,115.5C 194.833,115.5 193.167,115.5 191.5,115.5C 191.343,116.873 191.51,118.207 192,119.5C 193.609,120.147 195.109,120.98 196.5,122C 195.263,122.232 194.263,122.732 193.5,123.5C 192.833,123.5 192.167,123.5 191.5,123.5C 184.798,123.664 178.131,123.331 171.5,122.5C 171.5,121.5 171.5,120.5 171.5,119.5C 171.5,117.5 171.5,115.5 171.5,113.5C 172.833,113.5 174.167,113.5 175.5,113.5C 175.374,111.8 174.707,110.3 173.5,109C 173.938,107.08 174.605,105.246 175.5,103.5C 175.581,105.633 176.081,107.633 177,109.5C 177.249,108.376 177.749,107.376 178.5,106.5C 180.071,107.309 181.738,107.643 183.5,107.5C 183.67,108.822 183.337,109.989 182.5,111C 183.667,111.167 184.833,111.333 186,111.5C 192.969,110.243 192.802,108.91 185.5,107.5C 185.664,104.813 185.497,102.146 185,99.5C 184.583,98.244 183.75,97.5774 182.5,97.5C 182.167,97.5 181.833,97.5 181.5,97.5C 181.672,96.5084 181.338,95.8417 180.5,95.5C 180.158,94.6618 179.492,94.3284 178.5,94.5C 176.909,93.7811 175.409,92.7811 174,91.5C 173.505,93.4727 173.338,95.4727 173.5,97.5C 171.833,97.5 170.167,97.5 168.5,97.5C 168.993,95.1944 169.326,92.861 169.5,90.5C 170.861,83.283 175.195,80.783 182.5,83C 183.155,84.4866 184.155,85.6533 185.5,86.5C 187.535,84.6278 189.702,82.9611 192,81.5C 194.964,81.8829 197.63,82.8829 200,84.5C 201.325,88.1389 202.492,91.8056 203.5,95.5 Z"/></g>
<g><path style="opacity:1" fill="#1e7ef0" d="M 55.5,98.5 C 53.0435,106.074 52.8769,113.741 55,121.5C 58.6468,132.798 64.8134,142.465 73.5,150.5C 67.8625,151.663 62.1959,151.83 56.5,151C 54.4611,149.074 52.7945,146.907 51.5,144.5C 54.8601,146.485 57.1935,145.652 58.5,142C 55.5435,137.256 52.7101,132.422 50,127.5C 49.7861,122.115 49.2861,116.781 48.5,111.5C 48.8457,110.304 49.3457,110.304 50,111.5C 50.8624,113.087 51.5291,114.754 52,116.5C 52.3333,109.5 52.6667,102.5 53,95.5C 53.3333,96.8333 53.6667,98.1667 54,99.5C 54.3826,98.944 54.8826,98.6107 55.5,98.5 Z"/></g>
<g><path style="opacity:1" fill="#8cb8e7" d="M 157.5,102.5 C 158.492,102.328 159.158,102.662 159.5,103.5C 159.505,116.591 156.171,128.924 149.5,140.5C 150.421,135.986 151.921,131.653 154,127.5C 154.333,124.833 154.667,122.167 155,119.5C 155.667,120.833 156.333,120.833 157,119.5C 157.167,116.833 157.333,114.167 157.5,111.5C 157.438,108.387 156.771,105.554 155.5,103C 156.094,102.536 156.761,102.369 157.5,102.5 Z"/></g>
<g><path style="opacity:1" fill="#1d4a75" d="M 171.5,119.5 C 171.5,120.5 171.5,121.5 171.5,122.5C 178.131,123.331 184.798,123.664 191.5,123.5C 184.649,124.694 177.649,124.694 170.5,123.5C 170.232,121.901 170.566,120.568 171.5,119.5 Z"/></g>
<g><path style="opacity:1" fill="#1c79ec" d="M 93.5,135.5 C 93.5,136.167 93.5,136.833 93.5,137.5C 93.1788,139.048 92.1788,139.715 90.5,139.5C 88.8333,139.5 87.1667,139.5 85.5,139.5C 85.5,142.833 85.5,146.167 85.5,149.5C 82.5,149.5 79.5,149.5 76.5,149.5C 75.3054,149.134 74.6387,148.301 74.5,147C 75.8849,143.962 76.8849,140.796 77.5,137.5C 77.1322,136.09 76.2989,135.09 75,134.5C 74.8333,131 74.6667,127.5 74.5,124C 72.0066,114.016 75.6732,109.516 85.5,110.5C 86.2998,117.784 86.7998,125.117 87,132.5C 88.8705,134.219 91.0372,135.219 93.5,135.5 Z"/></g>
<g><path style="opacity:1" fill="#2378ea" d="M 98.5,113.5 C 100.023,116.63 100.689,119.963 100.5,123.5C 102.873,122.797 104.873,121.464 106.5,119.5C 107.401,120.29 108.068,121.29 108.5,122.5C 108.5,122.833 108.5,123.167 108.5,123.5C 106.486,125.183 104.82,127.183 103.5,129.5C 102.328,131.539 100.662,132.872 98.5,133.5C 97.6618,133.158 97.3284,132.492 97.5,131.5C 97.9308,125.977 97.2641,120.644 95.5,115.5C 95.3505,114.448 95.5172,113.448 96,112.5C 96.6708,113.252 97.5041,113.586 98.5,113.5 Z"/></g>
<g><path style="opacity:1" fill="#7fb1f8" d="M 150.5,81.5 C 149.414,81.62 148.747,82.2867 148.5,83.5C 149.156,85.4534 149.489,87.4534 149.5,89.5C 149.185,92.2108 149.852,94.5441 151.5,96.5C 151.427,98.0269 152.094,99.0269 153.5,99.5C 154.448,100.978 155.781,101.978 157.5,102.5C 156.761,102.369 156.094,102.536 155.5,103C 156.771,105.554 157.438,108.387 157.5,111.5C 157.333,114.167 157.167,116.833 157,119.5C 156.333,120.833 155.667,120.833 155,119.5C 154.667,122.167 154.333,124.833 154,127.5C 151.921,131.653 150.421,135.986 149.5,140.5C 146.437,146.067 142.437,150.901 137.5,155C 141.486,155.499 145.486,155.666 149.5,155.5C 149.5,155.833 149.5,156.167 149.5,156.5C 148.833,156.5 148.167,156.5 147.5,156.5C 142.821,156.334 138.155,156.501 133.5,157C 130.931,159.106 128.265,160.94 125.5,162.5C 124.739,158.216 123.405,154.216 121.5,150.5C 121.5,150.167 121.5,149.833 121.5,149.5C 128.396,146.603 133.729,141.936 137.5,135.5C 141.043,130.399 143.543,124.732 145,118.5C 145.82,111.986 145.653,105.653 144.5,99.5C 138.353,78.0384 124.019,66.3717 101.5,64.5C 101.5,65.8333 101.5,67.1667 101.5,68.5C 99.6916,68.5086 98.0249,68.0086 96.5,67C 92.9084,64.2865 89.4084,61.4532 86,58.5C 85.7003,56.9343 86.2003,55.601 87.5,54.5C 91.2543,52.2524 94.5876,49.419 97.5,46C 98.448,45.5172 99.448,45.3505 100.5,45.5C 100.5,47.5 100.5,49.5 100.5,51.5C 123.047,52.0874 139.714,62.0874 150.5,81.5 Z"/></g>
<g><path style="opacity:1" fill="#bcbfc4" d="M 108.5,123.5 C 112.97,124.486 117.637,124.819 122.5,124.5C 120.611,129.321 118.611,134.154 116.5,139C 118.863,139.589 119.863,141.089 119.5,143.5C 118.317,142.496 116.984,141.662 115.5,141C 108.986,140.18 102.653,140.347 96.5,141.5C 94.1432,141.663 91.8098,141.497 89.5,141C 90.056,140.617 90.3893,140.117 90.5,139.5C 92.1788,139.715 93.1788,139.048 93.5,137.5C 95.4147,137.784 97.0813,137.451 98.5,136.5C 99.1577,137.398 99.8243,138.398 100.5,139.5C 102.068,136.306 103.735,133.14 105.5,130C 104.906,129.536 104.239,129.369 103.5,129.5C 104.82,127.183 106.486,125.183 108.5,123.5 Z"/></g>
<g><path style="opacity:1" fill="#ebf1f6" d="M 103.5,129.5 C 104.239,129.369 104.906,129.536 105.5,130C 103.735,133.14 102.068,136.306 100.5,139.5C 99.8243,138.398 99.1577,137.398 98.5,136.5C 98.5,135.5 98.5,134.5 98.5,133.5C 100.662,132.872 102.328,131.539 103.5,129.5 Z"/></g>
<g><path style="opacity:1" fill="#f5f8f9" d="M 159.5,103.5 C 163.668,106.12 167.835,106.12 172,103.5C 171.799,106.777 171.632,110.111 171.5,113.5C 171.5,115.5 171.5,117.5 171.5,119.5C 170.566,120.568 170.232,121.901 170.5,123.5C 167.379,133.652 165.045,143.985 163.5,154.5C 162.839,155.718 162.172,157.051 161.5,158.5C 160.817,158.137 160.15,157.804 159.5,157.5C 156.829,154.839 153.829,152.506 150.5,150.5C 149.548,152.045 149.215,153.712 149.5,155.5C 145.486,155.666 141.486,155.499 137.5,155C 142.437,150.901 146.437,146.067 149.5,140.5C 156.171,128.924 159.505,116.591 159.5,103.5 Z"/></g>
<g><path style="opacity:1" fill="#6a6e9f" d="M 97.5,131.5 C 97.3284,132.492 97.6618,133.158 98.5,133.5C 98.5,134.5 98.5,135.5 98.5,136.5C 97.0813,137.451 95.4147,137.784 93.5,137.5C 93.5,136.833 93.5,136.167 93.5,135.5C 94.5,135.5 95.5,135.5 96.5,135.5C 96.2322,133.901 96.5655,132.568 97.5,131.5 Z"/></g>
<g><path style="opacity:1" fill="#192d33" d="M 119.5,143.5 C 120.363,145.421 121.029,147.421 121.5,149.5C 121.5,149.833 121.5,150.167 121.5,150.5C 121.292,152.92 121.626,155.253 122.5,157.5C 120.703,158.695 119.703,160.362 119.5,162.5C 117.5,162.5 115.5,162.5 113.5,162.5C 113.5,164.167 113.5,165.833 113.5,167.5C 113.5,167.833 113.5,168.167 113.5,168.5C 111.188,176.416 109.188,184.416 107.5,192.5C 105.666,193.494 103.999,193.494 102.5,192.5C 102.5,184.5 102.5,176.5 102.5,168.5C 102.748,164.094 103.415,159.76 104.5,155.5C 101.5,155.5 98.5,155.5 95.5,155.5C 92.1667,155.5 88.8333,155.5 85.5,155.5C 85.5,153.5 85.5,151.5 85.5,149.5C 87.288,149.215 88.9547,149.548 90.5,150.5C 88.0087,151.541 88.0087,152.374 90.5,153C 91.9437,153.781 93.277,153.614 94.5,152.5C 93.5934,149.579 93.2601,146.579 93.5,143.5C 95.1788,143.715 96.1788,143.048 96.5,141.5C 102.653,140.347 108.986,140.18 115.5,141C 116.984,141.662 118.317,142.496 119.5,143.5 Z"/></g>
<g><path style="opacity:1" fill="#1c2d3f" d="M 90.5,139.5 C 90.3893,140.117 90.056,140.617 89.5,141C 91.8098,141.497 94.1432,141.663 96.5,141.5C 96.1788,143.048 95.1788,143.715 93.5,143.5C 93.2601,146.579 93.5934,149.579 94.5,152.5C 93.277,153.614 91.9437,153.781 90.5,153C 88.0087,152.374 88.0087,151.541 90.5,150.5C 88.9547,149.548 87.288,149.215 85.5,149.5C 85.5,146.167 85.5,142.833 85.5,139.5C 87.1667,139.5 88.8333,139.5 90.5,139.5 Z"/></g>
<g><path style="opacity:1" fill="#2279e8" d="M 46.5,155.5 C 45.3995,156.605 44.7329,157.938 44.5,159.5C 43.6364,160.688 42.6364,161.855 41.5,163C 40.5165,163.591 39.8499,163.257 39.5,162C 38.6058,158.224 38.2725,154.39 38.5,150.5C 39.2567,146.317 40.59,142.317 42.5,138.5C 43.1499,138.196 43.8165,137.863 44.5,137.5C 46.1568,143.377 46.8234,149.377 46.5,155.5 Z"/></g>
<g><path style="opacity:1" fill="#172d42" d="M 76.5,149.5 C 79.5,149.5 82.5,149.5 85.5,149.5C 85.5,151.5 85.5,153.5 85.5,155.5C 88.8333,155.5 92.1667,155.5 95.5,155.5C 89.9327,156.804 84.266,156.804 78.5,155.5C 77.2702,153.703 76.6036,151.703 76.5,149.5 Z"/></g>
<g><path style="opacity:1" fill="#287ee5" d="M 159.5,157.5 C 156.136,157.104 152.803,156.77 149.5,156.5C 149.5,156.167 149.5,155.833 149.5,155.5C 149.215,153.712 149.548,152.045 150.5,150.5C 153.829,152.506 156.829,154.839 159.5,157.5 Z"/></g>
<g><path style="opacity:1" fill="#377ce8" d="M 36.5,160.5 C 37.1495,162.435 37.4828,164.435 37.5,166.5C 35.5165,166.617 33.8498,165.95 32.5,164.5C 30.7758,161.05 30.1091,157.383 30.5,153.5C 30.238,152.022 30.5713,150.689 31.5,149.5C 33.381,153.175 35.0477,156.841 36.5,160.5 Z"/></g>
<g><path style="opacity:1" fill="#80aff7" d="M 46.5,155.5 C 57.1667,155.5 67.8333,155.5 78.5,155.5C 84.266,156.804 89.9327,156.804 95.5,155.5C 98.5,155.5 101.5,155.5 104.5,155.5C 103.415,159.76 102.748,164.094 102.5,168.5C 84.8333,168.5 67.1667,168.5 49.5,168.5C 50.1969,165.577 51.1969,162.744 52.5,160C 52.1667,159.5 51.8333,159 51.5,158.5C 50.0603,159.952 48.3936,160.952 46.5,161.5C 46.1667,160.5 45.5,159.833 44.5,159.5C 44.7329,157.938 45.3995,156.605 46.5,155.5 Z"/></g>
<g><path style="opacity:1" fill="#7091b1" d="M 163.5,154.5 C 163.5,156.167 163.5,157.833 163.5,159.5C 161.901,159.768 160.568,159.434 159.5,158.5C 159.5,158.167 159.5,157.833 159.5,157.5C 160.15,157.804 160.817,158.137 161.5,158.5C 162.172,157.051 162.839,155.718 163.5,154.5 Z"/></g>
<g><path style="opacity:1" fill="#1e2f4a" d="M 121.5,150.5 C 123.405,154.216 124.739,158.216 125.5,162.5C 125.971,164.579 126.637,166.579 127.5,168.5C 127.5,168.833 127.5,169.167 127.5,169.5C 125.712,169.785 124.045,169.452 122.5,168.5C 124.225,166.043 124.725,163.377 124,160.5C 121.172,162.492 119.339,165.159 118.5,168.5C 118.167,168.5 117.833,168.5 117.5,168.5C 116.245,162.793 114.912,162.46 113.5,167.5C 113.5,165.833 113.5,164.167 113.5,162.5C 115.5,162.5 117.5,162.5 119.5,162.5C 119.703,160.362 120.703,158.695 122.5,157.5C 121.626,155.253 121.292,152.92 121.5,150.5 Z"/></g>
<g><path style="opacity:1" fill="#0779fc" d="M 147.5,156.5 C 148.167,156.5 148.833,156.5 149.5,156.5C 152.803,156.77 156.136,157.104 159.5,157.5C 159.5,157.833 159.5,158.167 159.5,158.5C 157.989,159.958 156.989,161.791 156.5,164C 154.939,164.188 154.272,163.355 154.5,161.5C 150.355,160.101 148.022,161.768 147.5,166.5C 141.195,167.487 134.862,167.653 128.5,167C 127.594,165.301 127.261,163.467 127.5,161.5C 132.511,161.666 137.511,161.499 142.5,161C 144.362,159.634 146.028,158.134 147.5,156.5 Z"/></g>
<g><path style="opacity:1" fill="#1b2c33" d="M 170.5,123.5 C 177.649,124.694 184.649,124.694 191.5,123.5C 192.167,123.5 192.833,123.5 193.5,123.5C 194.5,123.5 195.5,123.5 196.5,123.5C 196.5,143.5 196.5,163.5 196.5,183.5C 195.763,186.725 195.097,190.059 194.5,193.5C 193.167,193.5 191.833,193.5 190.5,193.5C 189.5,193.5 188.5,193.5 187.5,193.5C 186.7,173.671 185.2,154.004 183,134.5C 179.396,143.201 176.23,152.034 173.5,161C 174.53,170.83 175.53,180.663 176.5,190.5C 176.489,192.045 176.156,193.378 175.5,194.5C 173.393,193.532 171.059,193.198 168.5,193.5C 166.383,184.037 164.716,174.37 163.5,164.5C 163.5,162.833 163.5,161.167 163.5,159.5C 163.5,157.833 163.5,156.167 163.5,154.5C 165.045,143.985 167.379,133.652 170.5,123.5 Z"/></g>
<g><path style="opacity:1" fill="#1e7ff0" d="M 147.5,156.5 C 146.028,158.134 144.362,159.634 142.5,161C 137.511,161.499 132.511,161.666 127.5,161.5C 127.261,163.467 127.594,165.301 128.5,167C 134.862,167.653 141.195,167.487 147.5,166.5C 148.022,161.768 150.355,160.101 154.5,161.5C 154.272,163.355 154.939,164.188 156.5,164C 156.989,161.791 157.989,159.958 159.5,158.5C 160.568,159.434 161.901,159.768 163.5,159.5C 163.5,161.167 163.5,162.833 163.5,164.5C 159.021,167.243 154.688,170.243 150.5,173.5C 149.548,171.955 149.215,170.288 149.5,168.5C 142.167,168.5 134.833,168.5 127.5,168.5C 126.637,166.579 125.971,164.579 125.5,162.5C 128.265,160.94 130.931,159.106 133.5,157C 138.155,156.501 142.821,156.334 147.5,156.5 Z"/></g>
<g><path style="opacity:1" fill="#dcf0f9" d="M 38.5,150.5 C 38.2725,154.39 38.6058,158.224 39.5,162C 39.8499,163.257 40.5165,163.591 41.5,163C 42.6364,161.855 43.6364,160.688 44.5,159.5C 45.5,159.833 46.1667,160.5 46.5,161.5C 43.4223,164.562 41.7557,168.229 41.5,172.5C 40.71,173.609 40.21,174.942 40,176.5C 39.6667,174.833 39.3333,173.167 39,171.5C 38.7679,172.737 38.2679,173.737 37.5,174.5C 36.1086,169.775 33.1086,166.775 28.5,165.5C 28.767,167.965 29.4336,170.299 30.5,172.5C 28.3509,171.41 27.0175,169.576 26.5,167C 27.2321,165.235 28.5654,164.068 30.5,163.5C 29.2117,160.033 29.2117,156.7 30.5,153.5C 30.1091,157.383 30.7758,161.05 32.5,164.5C 33.8498,165.95 35.5165,166.617 37.5,166.5C 37.4828,164.435 37.1495,162.435 36.5,160.5C 37.1667,157.167 37.8333,153.833 38.5,150.5 Z"/></g>
<g><path style="opacity:1" fill="#5179c8" d="M 117.5,168.5 C 116.167,168.5 114.833,168.5 113.5,168.5C 113.5,168.167 113.5,167.833 113.5,167.5C 114.912,162.46 116.245,162.793 117.5,168.5 Z"/></g>
<g><path style="opacity:1" fill="#1f76e8" d="M 49.5,168.5 C 47.8606,170.806 45.8606,172.806 43.5,174.5C 42.1667,174.5 41.5,173.833 41.5,172.5C 41.7557,168.229 43.4223,164.562 46.5,161.5C 48.3936,160.952 50.0603,159.952 51.5,158.5C 51.8333,159 52.1667,159.5 52.5,160C 51.1969,162.744 50.1969,165.577 49.5,168.5 Z"/></g>
<g><path style="opacity:1" fill="#1d2f31" d="M 127.5,169.5 C 128.381,173.454 129.048,177.454 129.5,181.5C 129.179,183.048 128.179,183.715 126.5,183.5C 123.073,178.984 120.407,173.984 118.5,168.5C 119.339,165.159 121.172,162.492 124,160.5C 124.725,163.377 124.225,166.043 122.5,168.5C 124.045,169.452 125.712,169.785 127.5,169.5 Z"/></g>
<g><path style="opacity:1" fill="#3374e0" d="M 37.5,174.5 C 37.5,176.167 37.5,177.833 37.5,179.5C 36.7611,179.631 36.0944,179.464 35.5,179C 33.5787,176.927 31.912,174.76 30.5,172.5C 29.4336,170.299 28.767,167.965 28.5,165.5C 33.1086,166.775 36.1086,169.775 37.5,174.5 Z"/></g>
<g><path style="opacity:1" fill="#3877e1" d="M 50.5,170.5 C 51.6129,171.946 51.7796,173.613 51,175.5C 48.9984,178.887 46.165,180.387 42.5,180C 45.3775,176.96 48.0442,173.794 50.5,170.5 Z"/></g>
<g><path style="opacity:1" fill="#a3b3cf" d="M 41.5,172.5 C 41.5,173.833 42.1667,174.5 43.5,174.5C 42.1986,175.64 41.0319,176.973 40,178.5C 40.0808,180.985 39.9141,183.319 39.5,185.5C 38.1667,185.5 36.8333,185.5 35.5,185.5C 36.209,184.596 37.209,184.263 38.5,184.5C 38.634,182.708 38.3007,181.042 37.5,179.5C 37.5,177.833 37.5,176.167 37.5,174.5C 38.2679,173.737 38.7679,172.737 39,171.5C 39.3333,173.167 39.6667,174.833 40,176.5C 40.21,174.942 40.71,173.609 41.5,172.5 Z"/></g>
<g><path style="opacity:1" fill="#2c7dea" d="M 134.5,183.5 C 135.978,183.238 137.311,183.571 138.5,184.5C 135.539,186.741 132.206,188.075 128.5,188.5C 127.566,187.432 127.232,186.099 127.5,184.5C 130.059,184.802 132.393,184.468 134.5,183.5 Z"/></g>
<g><path style="opacity:1" fill="#417abd" d="M 129.5,181.5 C 130.779,182.968 132.446,183.635 134.5,183.5C 132.393,184.468 130.059,184.802 127.5,184.5C 127.232,186.099 127.566,187.432 128.5,188.5C 128.44,189.043 128.107,189.376 127.5,189.5C 126.534,187.604 126.201,185.604 126.5,183.5C 128.179,183.715 129.179,183.048 129.5,181.5 Z"/></g>
<g><path style="opacity:1" fill="#85898a" d="M 196.5,183.5 C 197.069,187.329 196.402,190.663 194.5,193.5C 195.097,190.059 195.763,186.725 196.5,183.5 Z"/></g>
<g><path style="opacity:1" fill="#1f2d32" d="M 35.5,185.5 C 36.8333,185.5 38.1667,185.5 39.5,185.5C 41.8333,185.5 44.1667,185.5 46.5,185.5C 44.9372,189.661 44.2705,193.995 44.5,198.5C 41.1667,198.5 37.8333,198.5 34.5,198.5C 34.5912,193.868 33.5912,189.535 31.5,185.5C 32.8333,185.5 34.1667,185.5 35.5,185.5 Z"/></g>
<g><path style="opacity:1" fill="#417bdd" d="M 102.5,192.5 C 103.999,193.494 105.666,193.494 107.5,192.5C 107.5,193.5 107.5,194.5 107.5,195.5C 110.059,195.39 112.392,196.056 114.5,197.5C 109.88,198.493 105.214,198.827 100.5,198.5C 100.595,196.214 101.262,194.214 102.5,192.5 Z"/></g>
<g><path style="opacity:1" fill="#377adf" d="M 190.5,193.5 C 191.833,193.5 193.167,193.5 194.5,193.5C 194.178,195.722 194.845,197.556 196.5,199C 194.406,200.352 192.073,200.852 189.5,200.5C 189.674,198.139 190.007,195.806 190.5,193.5 Z"/></g>
<g><path style="opacity:1" fill="#1972e9" d="M 168.5,193.5 C 171.059,193.198 173.393,193.532 175.5,194.5C 175.5,195.167 175.5,195.833 175.5,196.5C 175.5,197.5 175.5,198.5 175.5,199.5C 171.029,200.089 167.029,199.423 163.5,197.5C 166.367,197.631 168.033,196.297 168.5,193.5 Z"/></g>
<g><path style="opacity:1" fill="#6da1e4" d="M 175.5,196.5 C 176.434,197.568 176.768,198.901 176.5,200.5C 171.5,200.5 166.5,200.5 161.5,200.5C 161.285,198.821 161.952,197.821 163.5,197.5C 167.029,199.423 171.029,200.089 175.5,199.5C 175.5,198.5 175.5,197.5 175.5,196.5 Z"/></g>
</svg>
